<svg width="32" height="32" viewBox="0 0 32 32" fill="none" xmlns="http://www.w3.org/2000/svg" name="add"><g clip-path="url(#clip0_1_2)"><path fill="#fff" d="M28.387 0H3.613A3.613 3.613 0 0 0 0 3.613v24.774A3.613 3.613 0 0 0 3.613 32h24.774A3.613 3.613 0 0 0 32 28.387V3.613A3.613 3.613 0 0 0 28.387 0Z"></path><path fill="#5A6E85" d="M16.65 22.776V9.224a.8.8 0 0 0-.204-.514.629.629 0 0 0-.463-.21.629.629 0 0 0-.462.21.8.8 0 0 0-.204.514v13.552a.8.8 0 0 0 .204.514c.124.135.29.21.462.21a.629.629 0 0 0 .463-.21.8.8 0 0 0 .204-.514Z"></path><path fill="#5A6E85" d="M16.65 22.776V9.224a.8.8 0 0 0-.204-.514.629.629 0 0 0-.463-.21.629.629 0 0 0-.462.21.8.8 0 0 0-.204.514v13.552a.8.8 0 0 0 .204.514c.124.135.29.21.462.21a.629.629 0 0 0 .463-.21.8.8 0 0 0 .204-.514Z"></path><path fill="#5A6E85" d="M16.65 22.776V9.224a.8.8 0 0 0-.204-.514.629.629 0 0 0-.463-.21.629.629 0 0 0-.462.21.8.8 0 0 0-.204.514v13.552a.8.8 0 0 0 .204.514c.124.135.29.21.462.21a.629.629 0 0 0 .463-.21.8.8 0 0 0 .204-.514Z"></path><path fill="#5A6E85" d="M22.776 15.5H9.224a.8.8 0 0 0-.514.204.629.629 0 0 0-.21.462c0 .173.075.339.21.463a.8.8 0 0 0 .514.204h13.552a.8.8 0 0 0 .514-.204.629.629 0 0 0 .21-.463.629.629 0 0 0-.21-.462.8.8 0 0 0-.514-.204Z"></path><path fill="#5A6E85" d="M22.776 15.5H9.224a.8.8 0 0 0-.514.204.629.629 0 0 0-.21.462c0 .173.075.339.21.463a.8.8 0 0 0 .514.204h13.552a.8.8 0 0 0 .514-.204.629.629 0 0 0 .21-.463.629.629 0 0 0-.21-.462.8.8 0 0 0-.514-.204Z"></path><path fill="#5A6E85" d="M22.776 15.5H9.224a.8.8 0 0 0-.514.204.629.629 0 0 0-.21.462c0 .173.075.339.21.463a.8.8 0 0 0 .514.204h13.552a.8.8 0 0 0 .514-.204.629.629 0 0 0 .21-.463.629.629 0 0 0-.21-.462.8.8 0 0 0-.514-.204Z"></path><path stroke="#5A6E85" d="M28 .5H4A3.5 3.5 0 0 0 .5 4v24A3.5 3.5 0 0 0 4 31.5h24a3.5 3.5 0 0 0 3.5-3.5V4A3.5 3.5 0 0 0 28 .5Z"></path></g><defs><clipPath id="a"><path fill="#fff" d="M0 0h32v32H0z"></path></clipPath></defs></svg>