<svg width="32" height="32" viewBox="0 0 32 32" fill="none" xmlns="http://www.w3.org/2000/svg" name="remove"><rect width="31" height="31" x="0.5" y="0.5" fill="#fff" rx="3.5"></rect><g fill="#5A6E85" clip-path="url(#clip0_1496_5427)"><path d="M20.667 12.667a.667.667 0 0 0-.667.666v7.461A1.28 1.28 0 0 1 18.66 22h-5.32A1.28 1.28 0 0 1 12 20.794v-7.46a.666.666 0 1 0-1.333 0v7.46a2.612 2.612 0 0 0 2.673 2.54h5.32a2.612 2.612 0 0 0 2.673-2.54v-7.46a.667.667 0 0 0-.666-.667ZM21.333 10.667h-2.666V9.333A.667.667 0 0 0 18 8.667h-4a.667.667 0 0 0-.667.666v1.334h-2.666a.667.667 0 0 0 0 1.333h10.666a.667.667 0 0 0 0-1.333Zm-6.666 0V10h2.666v.667h-2.666Z"></path><path d="M15.333 19.333v-4.666a.667.667 0 1 0-1.333 0v4.666a.666.666 0 1 0 1.333 0ZM18 19.333v-4.666a.666.666 0 1 0-1.333 0v4.666a.667.667 0 1 0 1.333 0Z"></path></g><rect width="31" height="31" x="0.5" y="0.5" stroke="#5A6E85" rx="3.5"></rect><defs><clipPath id="a"><path fill="#fff" d="M8 8h16v16H8z"></path></clipPath></defs></svg>